<?xml version="1.0" encoding="utf-8"?>
<!-- Generator: Adobe Illustrator 24.1.2, SVG Export Plug-In . SVG Version: 6.00 Build 0)  -->
<svg version="1.1" id="Layer_1" xmlns="http://www.w3.org/2000/svg" xmlns:xlink="http://www.w3.org/1999/xlink" x="0px" y="0px"
	 viewBox="0 0 190.8 190.8" style="enable-background:new 0 0 190.8 190.8;" xml:space="preserve">
<style type="text/css">
	.st0{fill:#EEEEEE;}
	.st1{fill:#F26E50;}
</style>
<g>
	<path class="st0" d="M-724.6,323.7c0,33.2,15,62.4,56.8,62.4c45.8,0,90-41,112.1-82.1l20.5,6.3c-47.4,94.7-128.7,168.9-198.1,168.9
		c-62.4,0-86.8-44.2-86.8-98.7c0-92.3,90-190.2,180.8-190.2c25.3,0,43.4,15.8,43.4,37.1c0,20.5-18.2,37.9-37.9,37.9
		c-19.7,0-37.1-12.6-37.1-37.1c0-2.4,0-6.3,0.8-8.7C-704.8,241.6-724.6,282.6-724.6,323.7z"/>
	<path class="st0" d="M-288.9,244c0,45.8-48.1,75.8-86,82.1c53.7,14.2,36.3,54.5,68.7,54.5s56.8-41,75.8-76.6l20.5,6.3
		c-29.2,56.8-96.3,167.3-167.3,167.3c-36.3,0-53.7-22.1-53.7-50.5c0-26,11-43.4,11-62.4c0-15-11-24.5-28.4-25.3l-3.2-19.7
		c48.1-2.4,82.1-29.2,82.1-60.8c0-15.8-11.8-29.2-30.8-29.2c-40.3,0-58.4,47.4-69.5,78.1l-56.8,161h-86
		c60.8-183.9,75-228.9,93.9-281c25.3-72.6,82.1-220.2,170.5-220.2c35.5,0,49.7,23.7,49.7,53.7c0,60.8-49.7,144.4-96.3,176l0.8,2.4
		c7.9-3.9,30-9.5,46.6-9.5C-312.5,190.3-288.9,210-288.9,244z M-367,29.3c-34.7,0-67.9,146-71.8,168.1
		c43.4-40.3,83.7-105.8,83.7-148.4C-355.2,36.4-359.9,29.3-367,29.3z"/>
</g>
<rect x="-795.5" y="514" class="st1" width="561" height="32"/>
<g>
	<g>
		<path class="st0" d="M30.6,116.1c0,10.2,4.6,19.3,17.6,19.3c14.2,0,27.8-12.7,34.7-25.4l6.3,2c-14.6,29.3-39.8,52.2-61.3,52.2
			c-19.3,0-26.8-13.7-26.8-30.5c0-28.6,27.8-58.8,55.9-58.8c7.8,0,13.4,4.9,13.4,11.5c0,6.3-5.6,11.7-11.7,11.7
			c-6.1,0-11.5-3.9-11.5-11.5c0-0.7,0-2,0.2-2.7C36.7,90.7,30.6,103.4,30.6,116.1z"/>
		<path class="st0" d="M165.3,91.4c0,14.2-14.9,23.4-26.6,25.4c16.6,4.4,11.2,16.8,21.2,16.8c10,0,17.6-12.7,23.4-23.7l6.3,2
			c-9,17.6-29.8,51.7-51.7,51.7c-11.2,0-16.6-6.8-16.6-15.6c0-8.1,3.4-13.4,3.4-19.3c0-4.6-3.4-7.6-8.8-7.8l-1-6.1
			c14.9-0.7,25.4-9,25.4-18.8c0-4.9-3.7-9-9.5-9c-12.4,0-18.1,14.6-21.5,24.2L91.9,161H65.3c18.8-56.9,23.2-70.8,29-86.9
			C102.1,51.6,119.7,6,147,6c11,0,15.4,7.3,15.4,16.6c0,18.8-15.4,44.7-29.8,54.4l0.2,0.7c2.4-1.2,9.3-2.9,14.4-2.9
			C158,74.8,165.3,80.9,165.3,91.4z M141.2,25c-10.7,0-21,45.1-22.2,52c13.4-12.4,25.9-32.7,25.9-45.9C144.8,27.2,143.4,25,141.2,25
			z"/>
	</g>
	<rect x="8.7" y="174.9" class="st1" width="173.5" height="9.9"/>
</g>
</svg>
